<svg xmlns="http://www.w3.org/2000/svg" width="114" height="26" viewBox="0 0 114 26" fill="none" role="img" aria-labelledby="orum-title">
  <title id="orum-title">Orum</title>
  <path fill-rule="evenodd" clip-rule="evenodd" d="M13.1279 5.21916L10.883 0.8125C8.09708 1.1925 5.50827 2.51209 3.56338 4.54129L8.09927 13.4444C9.1418 10.2347 10.8972 7.45643 13.1279 5.22025V5.21916ZM20.2759 11.2389L23.7737 7.7412C22.5515 5.20934 20.4971 3.15495 17.9653 1.93173L10.8997 8.99727C14.2748 8.99727 17.4594 9.80874 20.2759 11.2389ZM0.308842 10.9312L5.19406 10.157V10.1581C6.63302 12.9703 8.73122 15.4978 11.4624 17.4821L1.59339 19.0448C0.263943 16.5677 -0.190521 13.6974 0.308842 10.9312ZM7.43957 19.2288L6.66534 24.114C9.14245 25.4435 12.0116 25.899 14.7789 25.3997L16.3416 15.5307C13.6104 17.515 10.5584 18.7294 7.43848 19.2288H7.43957ZM21.166 22.1426L16.7593 19.8965H16.7582C17.2477 16.7766 17.0353 13.4968 15.9927 10.2871L24.8959 14.8229C24.5159 17.6089 23.1963 20.1977 21.166 22.1426ZM28.9814 13.0621C28.9814 7.22638 33.1768 3.0935 39.0136 3.0935C44.8505 3.0935 49.1082 7.22638 49.1082 13.0621C49.0764 19.0249 44.8494 23.2837 39.0136 23.2837C33.1779 23.2837 28.9814 19.0249 28.9814 13.0621ZM39.076 18.646C41.0001 18.646 42.3569 16.5007 42.3569 13.0621C42.3569 9.62354 41.0001 7.73012 39.076 7.73012C37.152 7.73012 35.6999 9.78123 35.6999 13.0621C35.6999 16.343 37.0884 18.646 39.076 18.646ZM58.3782 5.46463C59.5905 4.11 61.3503 3.25583 63.3116 3.25583H63.3138V6.98353V8.7762C62.8714 8.71378 62.1464 8.65026 61.4522 8.65026C59.527 8.65026 58.4231 9.34455 58.4231 10.4802V22.8777H51.8295V3.53398H58.0125V5.46463H58.3782ZM76.2871 3.53356V17.2912C76.0659 17.9855 75.215 18.5221 74.1735 18.5221C73.1321 18.5221 72.659 18.2691 72.659 17.3865V3.53356H66.0348V18.2374C66.0348 21.6782 67.6468 23.2573 71.2715 23.2847H71.2814H71.3657L71.3712 23.2814C73.292 23.2529 75.0135 22.4064 76.2049 21.0759H76.5707V22.874H82.9113V3.53356H76.2871ZM108.001 3.1243H108.011H108.013C111.638 3.15168 113.25 4.7308 113.25 8.17159V22.8776H106.625V9.02467C106.625 8.14202 106.152 7.88905 105.111 7.88905C104.069 7.88905 103.219 8.42565 102.997 9.11994V22.8776H96.3414V9.02467C96.3414 8.14202 95.8683 7.88905 94.8269 7.88905C93.7854 7.88905 92.9345 8.42565 92.7133 9.11994V22.8776H86.088V3.53606H92.4286V5.3342H92.7944C93.9858 4.00366 95.7073 3.15715 97.6281 3.12868L97.6336 3.1254H97.7179H97.7278C100.16 3.14401 101.685 3.86239 102.426 5.37253C103.687 4.13726 106.092 3.15496 107.911 3.12759L107.917 3.1243H108.001Z" fill="#160828"/>
</svg>
